<?xml version="1.0" encoding="UTF-8" standalone="no"?>
<!-- Created with Inkscape (http://www.inkscape.org/) -->

<svg
   width="42.333332mm"
   height="16.933332mm"
   viewBox="0 0 42.333331 16.933332"
   version="1.1"
   id="svg5"
   xml:space="preserve"
   inkscape:version="1.2.2 (b0a8486541, 2022-12-01)"
   sodipodi:docname="logo.svg"
   inkscape:export-filename="logo.png"
   inkscape:export-xdpi="96"
   inkscape:export-ydpi="96"
   xmlns:inkscape="http://www.inkscape.org/namespaces/inkscape"
   xmlns:sodipodi="http://sodipodi.sourceforge.net/DTD/sodipodi-0.dtd"
   xmlns="http://www.w3.org/2000/svg"
   xmlns:svg="http://www.w3.org/2000/svg"><sodipodi:namedview
     id="namedview7"
     pagecolor="#505050"
     bordercolor="#ffffff"
     borderopacity="1"
     inkscape:showpageshadow="0"
     inkscape:pageopacity="0"
     inkscape:pagecheckerboard="1"
     inkscape:deskcolor="#505050"
     inkscape:document-units="mm"
     showgrid="false"
     inkscape:zoom="6.1860829"
     inkscape:cx="74.441291"
     inkscape:cy="70.076655"
     inkscape:window-width="1920"
     inkscape:window-height="1037"
     inkscape:window-x="0"
     inkscape:window-y="0"
     inkscape:window-maximized="1"
     inkscape:current-layer="layer1" /><defs
     id="defs2" /><g
     inkscape:label="Capa 1"
     inkscape:groupmode="layer"
     id="layer1"
     transform="translate(-18.226499,-20.967553)"><g
       id="g1369"
       transform="matrix(0.28103282,-0.00959845,0.00873944,0.25588187,12.009891,-1.5418593)"><g
         id="g1361"
         transform="matrix(1.011632,0.00265115,0.00219786,0.94103819,-0.42016186,5.1782435)"><path
           id="path1359"
           style="fill:#ffffff;stroke:none;stroke-width:2.86194;stroke-linecap:round;stroke-dasharray:none"
           d="m 151.60352,93.690682 c -39.53894,0.120432 -79.078361,-0.0274 -118.617192,0.04444 -2.698687,0.137485 -5.080461,2.191339 -5.333984,4.648157 -0.269268,1.556765 0.279119,3.318271 -0.751374,4.700671 -1.269957,1.22222 -3.283452,1.09324 -4.947845,1.21484 -1.125481,-0.0371 -2.524432,0.033 -3.109375,1.07361 0,5.84856 0,11.69712 0,17.54568 2.421086,-0.0501 5.040747,-0.60735 7.304688,0.3555 1.732968,0.715 1.825459,3.0927 0.382812,4.10958 -1.353422,1.09212 -3.24819,1.09821 -4.945312,1.21581 -1.776201,0.22492 -2.808437,1.9189 -2.784809,3.44016 0.09313,4.98531 0.01883,9.97893 0.04262,14.9676 2.619657,0.0638 5.466022,-0.41133 7.859375,0.81766 0.831298,0.32976 1.366837,1.10509 1.25224,1.93853 -0.04284,1.74702 -0.135951,3.50633 -0.02372,5.25499 0.123102,1.30029 0.392568,2.77072 1.682716,3.54952 1.487143,1.03623 3.443164,1.02594 5.22275,0.95096 39.140768,-0.11586 78.28194,0.0282 117.42266,-0.0389 2.89793,-0.12416 5.40839,-2.50386 5.40684,-5.14881 0.21096,-1.44999 -0.33604,-3.17646 0.87142,-4.35686 1.44108,-1.13199 3.46228,-0.9613 5.21605,-1.06977 1.13171,0.14198 2.62637,-0.38977 2.67561,-1.5759 0,-5.67839 0,-11.35678 0,-17.03518 -2.53656,0.0422 -5.30249,0.68369 -7.63827,-0.53386 -1.53821,-0.96075 -1.32972,-3.27394 0.23348,-4.12965 1.36998,-0.89105 3.12638,-0.98309 4.74643,-0.92732 1.52323,-0.0846 2.67325,-1.3759 2.68482,-2.7263 -0.031,-3.32071 -0.0201,-6.64847 -0.0281,-9.97261 4.9e-4,-1.91697 10e-4,-3.83395 0.002,-5.75092 -2.66446,-0.12449 -5.57741,0.38297 -7.98154,-0.93994 -0.97888,-0.36383 -1.27758,-1.4257 -1.08087,-2.29189 -0.1125,-2.4196 0.40691,-4.97129 -0.62336,-7.274698 -0.98399,-1.638702 -3.22981,-2.157606 -5.1404,-2.055048 z" /></g><g
         id="g1367"
         transform="matrix(-1.011632,-0.00265115,0.00200023,0.85641903,186.85086,19.169758)"
         style="stroke:#808000;stroke-width:2.41681;stroke-dasharray:none"><path
           style="fill:none;stroke:#808000;stroke-width:2.41681;stroke-linecap:round;stroke-dasharray:none"
           d="M 57.207287,90.921619 H 33.837499 c -2.30162,0.03611 -2.328652,0.03738 -2.328652,1.588832 v 6.970502 c 0,0 -0.914609,5.226897 -9.053256,5.226897 v 12.8873 c 11.460135,0 11.83204,14.3471 0,13.76271 v 12.86507 c 7.661769,0.17139 8.96701,4.15678 8.703319,9.08355 0.198608,2.85306 1.888082,2.456 3.443645,2.56111 l 82.316735,-0.17912"
           id="path1363"
           sodipodi:nodetypes="ccccccccccc" /><path
           style="fill:none;stroke:#808000;stroke-width:2.41681;stroke-linecap:round;stroke-dasharray:none"
           d="m 127.87926,155.86759 h 23.36979 c 2.30162,-0.0361 2.32865,-0.0374 2.32865,-1.58883 v -6.97051 c 0,0 0.91461,-5.22689 9.05326,-5.22689 v -12.8873 c -11.46014,0 -11.83204,-14.3471 0,-13.76271 v -12.86507 c -7.66177,-0.17139 -8.96701,-4.156782 -8.70332,-9.083552 -0.19861,-2.85306 -1.88808,-2.456 -3.44364,-2.56111 l -82.316738,0.17912"
           id="path1365"
           sodipodi:nodetypes="ccccccccccc" /></g></g><g
       aria-label="CINÉFILOS"
       id="text1373"
       style="font-style:italic;font-size:6.55447px;-inkscape-font-specification:'sans-serif Italic';fill:#808000;stroke-width:3.09662;stroke-linecap:round"><path
         d="m 27.090436,27.615022 q 0.157307,0.08521 0.157307,0.262179 0,0.11798 -0.07865,0.216297 -0.07865,0.104872 -0.216297,0.104872 -0.09176,0 -0.176971,-0.04588 -0.406377,-0.229406 -0.878299,-0.229406 -0.491585,0 -0.871745,0.216298 -0.373604,0.216297 -0.583347,0.609565 -0.209743,0.386714 -0.209743,0.891408 0,0.544021 0.216297,0.937289 0.216298,0.393269 0.596457,0.603012 0.380159,0.203188 0.852081,0.203188 0.485031,0 0.878299,-0.235961 0.07865,-0.03933 0.170416,-0.03933 0.144199,0 0.229407,0.111426 0.07865,0.09832 0.07865,0.209744 0,0.07865 -0.04588,0.150752 -0.03933,0.06555 -0.111426,0.104872 -0.255624,0.144198 -0.576793,0.229406 -0.314615,0.08521 -0.622675,0.08521 -0.635784,0 -1.17325,-0.281842 -0.530912,-0.281842 -0.852081,-0.819309 -0.314615,-0.537466 -0.314615,-1.258458 0,-0.662001 0.301506,-1.192913 0.30806,-0.537467 0.838972,-0.838973 0.537466,-0.30806 1.199468,-0.30806 0.635784,0 1.192914,0.314615 z"
         style="font-style:normal;font-family:'Quicksand Medium';-inkscape-font-specification:'Quicksand Medium, '"
         id="path795" /><path
         d="m 28.650403,31.613249 q 0,0.137644 -0.09832,0.229406 -0.09832,0.09176 -0.229407,0.09176 -0.144198,0 -0.235961,-0.09176 -0.08521,-0.09176 -0.08521,-0.229406 v -3.952346 q 0,-0.131089 0.09176,-0.222852 0.09176,-0.09176 0.235961,-0.09176 0.131089,0 0.222852,0.09176 0.09832,0.09176 0.09832,0.222852 z"
         style="font-style:normal;font-family:'Quicksand Medium';-inkscape-font-specification:'Quicksand Medium, '"
         id="path797" /><path
         d="m 33.166429,27.346289 q 0.124535,0 0.203188,0.08521 0.07865,0.07865 0.07865,0.203188 v 3.978564 q 0,0.137644 -0.09176,0.229406 -0.08521,0.09176 -0.222852,0.09176 -0.0721,0 -0.144198,-0.01966 -0.06555,-0.02622 -0.104871,-0.0721 L 30.30868,28.486766 v 3.159255 q 0,0.124535 -0.08521,0.209743 -0.07865,0.07865 -0.203189,0.07865 -0.124535,0 -0.203188,-0.07865 -0.07865,-0.08521 -0.07865,-0.209743 v -3.985118 q 0,-0.137644 0.08521,-0.222852 0.09176,-0.09176 0.222852,-0.09176 0.07865,0 0.150753,0.03277 0.0721,0.02622 0.111426,0.07865 l 2.569352,3.362443 v -3.185473 q 0,-0.124535 0.07865,-0.203188 0.08521,-0.08521 0.209743,-0.08521 z"
         style="font-style:normal;font-family:'Quicksand Medium';-inkscape-font-specification:'Quicksand Medium, '"
         id="path799" /><path
         d="m 37.131885,31.331406 q 0.137644,0 0.222852,0.09176 0.09176,0.09176 0.09176,0.216298 0,0.131089 -0.09176,0.216297 -0.08521,0.07865 -0.222852,0.07865 H 34.85093 q -0.13109,0 -0.222852,-0.09176 -0.09176,-0.09176 -0.09176,-0.222852 v -3.9589 q 0,-0.131089 0.09176,-0.222852 0.09176,-0.09176 0.222852,-0.09176 h 2.280955 q 0.137644,0 0.222852,0.08521 0.09176,0.08521 0.09176,0.222852 0,0.131089 -0.09176,0.216297 -0.08521,0.07865 -0.222852,0.07865 h -1.946677 v 1.337112 h 1.651726 q 0.137644,0 0.222852,0.08521 0.09176,0.08521 0.09176,0.216297 0,0.137644 -0.09176,0.216298 -0.08521,0.07865 -0.222852,0.07865 h -1.651726 v 1.448537 z m -1.094596,-4.253851 q -0.09832,0 -0.157307,-0.04588 -0.05244,-0.05244 -0.05244,-0.137644 0,-0.08521 0.07865,-0.150753 l 0.576793,-0.48503 q 0.137644,-0.111426 0.262179,-0.111426 0.111426,0 0.196634,0.07865 0.09176,0.07865 0.09176,0.19008 0,0.08521 -0.05244,0.163862 -0.05244,0.07865 -0.144199,0.124535 l -0.648892,0.334278 q -0.07865,0.03933 -0.150753,0.03933 z"
         style="font-style:normal;font-family:'Quicksand Medium';-inkscape-font-specification:'Quicksand Medium, '"
         id="path801" /><path
         d="m 38.914699,27.9493 v 1.356775 h 1.6124 q 0.137644,0 0.222852,0.08521 0.09176,0.08521 0.09176,0.222852 0,0.117981 -0.09176,0.203189 -0.08521,0.08521 -0.222852,0.08521 h -1.6124 v 1.717271 q 0,0.13109 -0.09832,0.222852 -0.09176,0.09176 -0.222852,0.09176 -0.137644,0 -0.229406,-0.09176 -0.09176,-0.09176 -0.09176,-0.222852 v -3.9589 q 0,-0.131089 0.09176,-0.222852 0.09176,-0.09176 0.222852,-0.09176 h 2.235074 q 0.137644,0 0.222852,0.08521 0.09176,0.08521 0.09176,0.222852 0,0.11798 -0.09176,0.209743 -0.09176,0.08521 -0.222852,0.08521 z"
         style="font-style:normal;font-family:'Quicksand Medium';-inkscape-font-specification:'Quicksand Medium, '"
         id="path803" /><path
         d="m 42.61797,31.613249 q 0,0.137644 -0.09832,0.229406 -0.09832,0.09176 -0.229406,0.09176 -0.144199,0 -0.235961,-0.09176 -0.08521,-0.09176 -0.08521,-0.229406 v -3.952346 q 0,-0.131089 0.09176,-0.222852 0.09176,-0.09176 0.235961,-0.09176 0.131089,0 0.222852,0.09176 0.09832,0.09176 0.09832,0.222852 z"
         style="font-style:normal;font-family:'Quicksand Medium';-inkscape-font-specification:'Quicksand Medium, '"
         id="path805" /><path
         d="m 46.236034,31.324852 q 0.137644,0 0.222852,0.08521 0.09176,0.08521 0.09176,0.222852 0,0.13109 -0.09176,0.216298 -0.08521,0.08521 -0.222852,0.08521 h -2.215411 q -0.137644,0 -0.229407,-0.09176 -0.08521,-0.09176 -0.08521,-0.222852 v -3.9589 q 0,-0.131089 0.09176,-0.222852 0.09176,-0.09176 0.235961,-0.09176 0.131089,0 0.222852,0.09176 0.09832,0.09176 0.09832,0.222852 v 3.663949 z"
         style="font-style:normal;font-family:'Quicksand Medium';-inkscape-font-specification:'Quicksand Medium, '"
         id="path807" /><path
         d="m 51.414057,29.640353 q 0,0.662002 -0.288397,1.199468 -0.281842,0.537467 -0.786536,0.852081 -0.504694,0.30806 -1.140478,0.30806 -0.635783,0 -1.140478,-0.30806 -0.504694,-0.314614 -0.79309,-0.852081 -0.281843,-0.537466 -0.281843,-1.199468 0,-0.662001 0.281843,-1.199468 0.288396,-0.537466 0.79309,-0.845526 0.504695,-0.314615 1.140478,-0.314615 0.635784,0 1.140478,0.314615 0.504694,0.30806 0.786536,0.845526 0.288397,0.537467 0.288397,1.199468 z m -0.67511,0 q 0,-0.491585 -0.196634,-0.884853 -0.196635,-0.399823 -0.550576,-0.622675 -0.347387,-0.229406 -0.793091,-0.229406 -0.445704,0 -0.799645,0.222852 -0.347387,0.222852 -0.544021,0.622674 -0.196634,0.393268 -0.196634,0.891408 0,0.491585 0.196634,0.891408 0.196634,0.393268 0.544021,0.622675 0.353941,0.222852 0.799645,0.222852 0.445704,0 0.793091,-0.222852 0.353941,-0.229407 0.550576,-0.622675 0.196634,-0.399823 0.196634,-0.891408 z"
         style="font-style:normal;font-family:'Quicksand Medium';-inkscape-font-specification:'Quicksand Medium, '"
         id="path809" /><path
         d="m 53.629463,31.999962 q -0.478476,0 -0.845527,-0.131089 -0.36705,-0.137644 -0.701328,-0.439149 -0.137644,-0.117981 -0.137644,-0.268734 0,-0.11798 0.09176,-0.209743 0.09176,-0.09832 0.216297,-0.09832 0.111426,0 0.19008,0.0721 0.262179,0.242516 0.537466,0.360496 0.281843,0.111426 0.635784,0.111426 0.412932,0 0.694774,-0.190079 0.288396,-0.19008 0.288396,-0.478477 -0.0066,-0.340832 -0.288396,-0.524357 -0.275288,-0.19008 -0.845527,-0.314615 -0.67511,-0.137644 -1.042161,-0.452258 -0.360495,-0.314615 -0.360495,-0.871745 0,-0.386714 0.203188,-0.67511 0.203189,-0.294951 0.563685,-0.452259 0.360495,-0.157307 0.812754,-0.157307 0.406377,0 0.766873,0.131089 0.360496,0.13109 0.583348,0.347387 0.150752,0.13109 0.150752,0.281843 0,0.11798 -0.09176,0.209743 -0.08521,0.09176 -0.209743,0.09176 -0.09176,0 -0.150753,-0.05244 -0.170416,-0.170416 -0.471922,-0.288396 -0.301505,-0.117981 -0.576793,-0.117981 -0.43915,0 -0.701328,0.183525 -0.255625,0.176971 -0.255625,0.471922 0,0.321169 0.255625,0.491585 0.262178,0.170417 0.773427,0.288397 0.511249,0.111426 0.832418,0.262179 0.327723,0.150753 0.504694,0.419486 0.176971,0.268733 0.176971,0.701328 0,0.38016 -0.216298,0.675111 -0.209743,0.294951 -0.576793,0.458813 -0.367051,0.163861 -0.8062,0.163861 z"
         style="font-style:normal;font-family:'Quicksand Medium';-inkscape-font-specification:'Quicksand Medium, '"
         id="path811" /></g></g></svg>
